<svg width="27" height="28" fill="none" xmlns="http://www.w3.org/2000/svg"><path d="M18.116 9.643V7.505a5.073 5.073 0 00-10.145 0v5.073a.725.725 0 001.45 0v-1.486h5.796v-1.45H9.42V7.506a3.623 3.623 0 017.247 0v5.036a.725.725 0 101.449 0v-1.449h3.623v13.043H4.348V11.092h2.174v-1.45H2.899v14.559a1.384 1.384 0 001.384 1.384h17.521a1.384 1.384 0 001.384-1.384V9.643h-5.072z" fill="#2B2E34"/><path fill-rule="evenodd" clip-rule="evenodd" d="M6.522 9.643v1.449H4.348v13.043h17.391V11.092h-3.623v1.45a.725.725 0 01-1.45 0V7.504a3.623 3.623 0 10-7.246 0v2.138h5.797v1.449H9.42v1.485a.725.725 0 01-1.449 0V7.505a5.072 5.072 0 1110.145 0v2.138h5.072V24.2a1.384 1.384 0 01-1.384 1.383H4.283A1.384 1.384 0 012.899 24.2V9.643h3.623zm11.694-.1h5.072V24.2a1.484 1.484 0 01-1.484 1.483H4.283A1.484 1.484 0 012.799 24.2V9.543h3.823v1.649H4.448v12.843h17.191V11.192h-3.423v1.35a.825.825 0 01-1.65 0V7.504a3.523 3.523 0 00-7.046 0v2.038h5.797v1.649H9.52v1.385a.825.825 0 01-1.649 0V7.505a5.172 5.172 0 1110.345 0v2.038z" fill="#2B2E34"/></svg>