<svg width="35" height="25" fill="none" xmlns="http://www.w3.org/2000/svg"><path d="M8.59 18.774H4.985a1.04 1.04 0 100 2.08H8.59a1.04 1.04 0 100-2.08z" fill="#2B2E34" fill-opacity=".12" stroke="#fff" stroke-width=".3"/><path fill-rule="evenodd" clip-rule="evenodd" d="M31.842 9.92l1.939 2.497c.14.182.218.407.218.638v6.76a1.04 1.04 0 01-1.04 1.039h-3.017a4.167 4.167 0 01-4.019 3.085 4.167 4.167 0 01-4.019-3.085H15.73a4.167 4.167 0 01-4.018 3.085 4.164 4.164 0 01-4.16-4.16 4.164 4.164 0 014.16-4.16 4.167 4.167 0 014.036 3.155h6.14a4.167 4.167 0 014.036-3.154 4.167 4.167 0 014.037 3.154h1.959v-5.363l-1.515-1.95h-8.087a1.04 1.04 0 01-1.04-1.04V3.14H4.985a1.04 1.04 0 110-2.08h17.332c.575 0 1.04.466 1.04 1.04v1.04h4.438c.393 0 .753.221.93.573l3.12 6.204-.003.002zm-2.597-.54l-2.091-4.16h-3.797v4.16h5.888zm-1.242 10.385a2.082 2.082 0 00-2.08-2.065c-1.147 0-2.08.933-2.08 2.08s.933 2.08 2.08 2.08a2.082 2.082 0 002.08-2.095zM11.71 21.859a2.082 2.082 0 01-2.08-2.08c0-1.146.933-2.08 2.08-2.08s2.08.933 2.08 2.08c0 1.148-.932 2.08-2.08 2.08z" fill="#2B2E34"/><path d="M33.78 12.417l.119-.092-.118.092zM31.843 9.92l-.068-.134-.163.082.112.144.119-.092zM34 19.814h.15H34zm-4.057 1.04v-.15h-.115l-.03.111.145.039zm-8.038 0l.145-.039-.03-.111h-.115v.15zm-6.175 0v-.15h-.115l-.03.111.146.039zm.018-2.08l-.145.036.028.114h.117v-.15zm6.14 0v.15h.117l.028-.114-.145-.036zm8.073 0l-.145.036.028.114h.117v-.15zm1.959 0v.15h.15v-.15h-.15zm0-5.363h.15v-.051l-.032-.041-.118.092zm-1.515-1.95l.119-.093-.045-.058h-.074v.15zm-9.127-8.32h.15v-.15h-.15v.15zm2.08 0h-.15v.15h.15v-.15zm5.368.573l.134-.068-.134.068zm3.12 6.204l.067.134.134-.067-.068-.134-.134.067zm-4.691-4.697l.134-.068-.042-.082h-.092v.15zm2.091 4.16v.15h.244l-.11-.218-.134.067zm-5.888-4.16v-.15h-.15v.15h.15zm0 4.16h-.15v.15h.15v-.15zm4.646 10.384l.15.007v-.008h-.15zm0 .075l.15.005v-.008l-.15.003zm5.896-7.515l-1.94-2.497-.237.184 1.939 2.497.237-.184zm.25.73c0-.264-.088-.521-.25-.73l-.237.184a.891.891 0 01.187.546h.3zm0 6.76v-6.76h-.3v6.76h.3zm-1.19 1.189a1.19 1.19 0 001.19-1.19h-.3a.89.89 0 01-.89.89v.3zm-3.017 0h3.017v-.3h-3.017v.3zm-.145-.189a4.017 4.017 0 01-3.874 2.974v.3a4.317 4.317 0 004.164-3.196l-.29-.078zm-3.874 2.974a4.017 4.017 0 01-3.874-2.974l-.29.078a4.317 4.317 0 004.164 3.196v-.3zm-4.019-3.085H15.73v.3h6.175v-.3zm-6.32.111a4.017 4.017 0 01-3.873 2.974v.3a4.317 4.317 0 004.163-3.196l-.29-.078zm-3.873 2.974a4.014 4.014 0 01-4.01-4.01h-.3a4.314 4.314 0 004.31 4.31v-.3zM7.7 19.78c0-2.21 1.799-4.01 4.01-4.01v-.3a4.314 4.314 0 00-4.31 4.31h.3zm4.01-4.01a4.017 4.017 0 013.89 3.041l.292-.072a4.317 4.317 0 00-4.183-3.268v.3zm4.036 3.155h6.14v-.3h-6.14v.3zm6.285-.114a4.017 4.017 0 013.891-3.04v-.3a4.317 4.317 0 00-4.182 3.268l.291.072zm3.891-3.04a4.017 4.017 0 013.892 3.04l.29-.072a4.317 4.317 0 00-4.182-3.268v.3zm5.996 2.854H29.96v.3h1.959v-.3zm-.15-5.213v5.363h.3v-5.363h-.3zm-1.483-1.859l1.514 1.95.238-.183-1.515-1.95-.237.183zm-7.969.058h8.087v-.3h-8.087v.3zm-1.19-1.19c0 .658.533 1.19 1.19 1.19v-.3a.89.89 0 01-.89-.89h-.3zm0-7.28v7.28h.3V3.14h-.3zm-16.142.15h16.292v-.3H4.985v.3zM3.795 2.1c0 .658.533 1.19 1.19 1.19v-.3a.89.89 0 01-.89-.89h-.3zM4.985.912a1.19 1.19 0 00-1.19 1.19h.3a.89.89 0 01.89-.89v-.3zm17.332 0H4.985v.3h17.332v-.3zm1.19 1.19a1.19 1.19 0 00-1.19-1.19v.3a.89.89 0 01.89.89h.3zm0 1.04V2.1h-.3v1.04h.3zm4.288-.15h-4.438v.3h4.438v-.3zm1.064.655a1.19 1.19 0 00-1.064-.655v.3a.89.89 0 01.796.49l.268-.135zm3.12 6.205l-3.12-6.205-.268.135 3.12 6.205.267-.135zm-.07.203l.003-.002-.135-.268-.003.002.135.268zm-4.89-4.766l2.092 4.16.268-.135-2.091-4.16-.268.135zm-3.662.083h3.797v-.3h-3.797v.3zm.15 4.01V5.22h-.3v4.16h.3zm5.738-.15h-5.888v.3h5.888v-.3zm-1.092 10.533a2.232 2.232 0 00-2.23-2.214v.3c1.06 0 1.923.858 1.93 1.916l.3-.002zm-2.23-2.214c-1.23 0-2.23 1-2.23 2.23h.3c0-1.065.866-1.93 1.93-1.93v-.3zm-2.23 2.23c0 1.23 1 2.23 2.23 2.23v-.3a1.932 1.932 0 01-1.93-1.93h-.3zm2.23 2.23a2.232 2.232 0 002.23-2.165l-.3-.009a1.932 1.932 0 01-1.93 1.873v.3zm1.929-2.196v.03l.3-.007v-.023h-.3zm.001-.056l-.001.056h.3l.001-.042-.3-.014zm-18.372.021c0 1.23 1 2.23 2.23 2.23v-.3a1.932 1.932 0 01-1.93-1.93h-.3zm2.23-2.23c-1.23 0-2.23 1-2.23 2.23h.3c0-1.064.865-1.93 1.93-1.93v-.3zm2.23 2.23c0-1.23-1.001-2.23-2.23-2.23v.3c1.063 0 1.93.866 1.93 1.93h.3zm-2.23 2.23c1.23 0 2.23-1 2.23-2.23h-.3c0 1.065-.866 1.93-1.93 1.93v.3z" fill="#fff"/><path d="M8.523 13.505H3.739a1.04 1.04 0 100 2.08h4.784a1.04 1.04 0 100-2.08z" fill="#2B2E34" fill-opacity=".3" stroke="#fff" stroke-width=".3"/><path d="M10.914 9.415H2.04a1.04 1.04 0 100 2.08h8.874a1.04 1.04 0 100-2.08z" fill="#2B2E34" fill-opacity=".6" stroke="#fff" stroke-width=".3"/><path d="M12.613 5.325H3.74a1.04 1.04 0 100 2.08h8.874a1.04 1.04 0 100-2.08z" fill="#2B2E34" fill-opacity=".8" stroke="#fff" stroke-width=".3"/></svg>