<svg width="23" height="24" fill="none" xmlns="http://www.w3.org/2000/svg"><path d="M19.846 10.094h-.057V8.76c0-4.286-3.633-7.76-8.113-7.76-4.48 0-8.113 3.474-8.113 7.76v1.334h-.341c-1.253 0-2.22 1.062-2.22 2.287v3.404c-.032 1.187.949 2.174 2.19 2.205h2.136a.527.527 0 00.513-.572v-6.67c0-.327-.2-.654-.513-.654h-.626V8.76c0-3.684 3.122-6.67 6.974-6.67 3.852 0 6.974 2.986 6.974 6.67v1.334h-.626c-.313 0-.513.327-.513.654v6.67a.524.524 0 00.513.572h.654l-.056.082c-.855 1.085-2.195 1.722-3.616 1.715-.31-1.459-1.799-2.4-3.324-2.102-1.304.254-2.244 1.346-2.255 2.62C9.443 21.796 10.713 23 12.274 23a2.997 2.997 0 002.05-.844 2.36 2.36 0 00.682-1.307c1.78.006 3.457-.791 4.526-2.151l.541-.762c1.224-.082 1.993-.817 1.993-1.88v-3.403c0-1.17-.911-2.559-2.22-2.559zM4.702 16.901h-1.48c-.613-.014-1.098-.501-1.083-1.087l.001-.03v-3.403c0-.626.456-1.198 1.082-1.198h1.48v5.718zm8.796 4.492a1.715 1.715 0 01-1.224.518c-.926-.014-1.678-.721-1.708-1.607 0-.887.751-1.606 1.679-1.607.927 0 1.68.719 1.68 1.606v.001c.023.405-.132.8-.427 1.09zm7.43-5.336c0 .735-.74.844-1.082.844H18.65v-5.718h1.196c.626 0 1.081.844 1.081 1.47v3.404z" fill="#2B2E34"/><path fill-rule="evenodd" clip-rule="evenodd" d="M3.221 17.99h-.03c-1.24-.03-2.222-1.018-2.19-2.205V12.38c0-1.225.968-2.287 2.22-2.287h.342V8.76C3.563 4.474 7.195 1 11.675 1s8.113 3.474 8.113 7.76v1.334h.057c1.31 0 2.22 1.389 2.22 2.56v3.403c0 1.062-.768 1.797-1.992 1.879l-.541.762c-1.07 1.36-2.747 2.157-4.526 2.15a2.36 2.36 0 01-.684 1.308 2.998 2.998 0 01-2.049.844c-1.561 0-2.83-1.203-2.847-2.696.011-1.273.951-2.365 2.255-2.62 1.525-.297 3.014.644 3.325 2.103 1.359.006 2.645-.576 3.501-1.577.039-.045.077-.091.114-.138l.057-.082h-.655a.524.524 0 01-.512-.572v-6.67c0-.327.199-.654.512-.654h.626V8.76c0-3.684-3.122-6.67-6.974-6.67-3.851 0-6.974 2.986-6.974 6.67v1.334h.626c.314 0 .513.327.513.654v6.67a.527.527 0 01-.512.572H3.22zm-.035.22C1.833 18.175.747 17.098.78 15.781v-3.4c0-1.337 1.056-2.508 2.44-2.508h.122V8.76c0-4.416 3.74-7.98 8.332-7.98 4.593 0 8.333 3.564 8.333 7.98v1.12c.666.053 1.22.426 1.61.918.42.53.667 1.217.667 1.855v3.404c0 .587-.214 1.096-.606 1.466-.368.35-.88.564-1.486.623l-.488.688c-1.076 1.369-2.742 2.187-4.519 2.233-.112.47-.357.901-.71 1.246a3.217 3.217 0 01-2.2.907h-.003c-1.672 0-3.05-1.29-3.067-2.913v-.004c.012-1.385 1.033-2.561 2.433-2.834 1.573-.307 3.123.614 3.538 2.096a4.364 4.364 0 003.035-1.355h-.199a.744.744 0 01-.723-.803v-6.66c0-.204.062-.414.181-.578a.677.677 0 01.552-.295h.406V8.76c0-3.554-3.014-6.45-6.754-6.45-3.74 0-6.754 2.896-6.754 6.45v1.114h.406c.242 0 .431.128.552.295a.99.99 0 01.18.579v6.66c0 .582-.53.791-.59.801M4.7 16.901v-5.718H3.22c-.626 0-1.082.572-1.082 1.198v3.433c-.016.586.47 1.073 1.082 1.087H4.7zm-.22-.22v-5.278H3.22c-.477 0-.862.443-.862.978v3.438c-.012.455.366.85.865.862H4.48zm8.862 4.555c.252-.246.381-.58.361-.919v-.014m-.36.933l-.005.005.004-.005zm-.005.005a1.495 1.495 0 01-1.065.45l1.065-.45zm-1.065.45c-.815-.014-1.461-.633-1.489-1.39.002-.755.645-1.383 1.459-1.384.815 0 1.46.63 1.46 1.386m-1.43 1.608c.464-.003.908-.19 1.223-.517.296-.29.45-.685.427-1.09 0-.888-.753-1.607-1.68-1.607-.928 0-1.68.72-1.679 1.608.03.885.782 1.592 1.708 1.606zm8.348-5.533a.567.567 0 00.084-.321v-3.403c0-.267-.099-.593-.269-.849-.172-.26-.384-.402-.592-.402h-.976v5.278h.976c.155 0 .384-.026.567-.121a.55.55 0 00.21-.182zm-.777.523c.341 0 1.082-.109 1.082-.844v-3.403c0-.627-.456-1.47-1.082-1.47h-1.196V16.9h1.196z" fill="#2B2E34"/><circle cx="12.351" cy="20.35" r="1.35" fill="#FBFBFB"/></svg>