<svg width="22" height="23" fill="none" xmlns="http://www.w3.org/2000/svg"><path d="M18.8 15.616c-1.299-1.085-2.618-1.742-3.901-.659l-.766.655c-.561.475-1.603 2.696-5.634-1.83-4.03-4.522-1.632-5.226-1.07-5.697l.77-.656c1.277-1.086.795-2.453-.126-3.86l-.555-.852C6.593 1.313 5.586.391 4.306 1.475l-.692.59a6.325 6.325 0 00-2.53 4.196c-.462 2.981.994 6.395 4.33 10.141C8.747 20.15 12.01 22.032 15.1 22c2.568-.027 4.12-1.373 4.604-1.862l.694-.591c1.277-1.084.484-2.187-.816-3.274l-.782-.657z" fill="#fff"/><path d="M18.8 15.616c-1.299-1.085-2.618-1.742-3.901-.659l-.766.655c-.561.475-1.603 2.696-5.634-1.83-4.03-4.522-1.632-5.226-1.07-5.697l.77-.656c1.277-1.086.795-2.453-.126-3.86l-.555-.852C6.593 1.313 5.586.391 4.306 1.475l-.692.59a6.325 6.325 0 00-2.53 4.196c-.462 2.981.994 6.395 4.33 10.141C8.747 20.15 12.01 22.032 15.1 22c2.568-.027 4.12-1.373 4.604-1.862l.694-.591c1.277-1.084.484-2.187-.816-3.274l-.782-.657z" fill="url(#paint0_linear_1_1097)"/><path d="M18.8 15.616c-1.299-1.085-2.618-1.742-3.901-.659l-.766.655c-.561.475-1.603 2.696-5.634-1.83-4.03-4.522-1.632-5.226-1.07-5.697l.77-.656c1.277-1.086.795-2.453-.126-3.86l-.555-.852C6.593 1.313 5.586.391 4.306 1.475l-.692.59a6.325 6.325 0 00-2.53 4.196c-.462 2.981.994 6.395 4.33 10.141C8.747 20.15 12.01 22.032 15.1 22c2.568-.027 4.12-1.373 4.604-1.862l.694-.591c1.277-1.084.484-2.187-.816-3.274l-.782-.657z" stroke="#2B2E34" stroke-width="1.7"/><defs><linearGradient id="paint0_linear_1_1097" x1="11.023" y1="1" x2="11.023" y2="22" gradientUnits="userSpaceOnUse"><stop stop-color="#fff"/><stop offset="1" stop-color="#fff" stop-opacity="0"/></linearGradient></defs></svg>