<svg width="15" height="15" fill="none" xmlns="http://www.w3.org/2000/svg"><path d="M7.5 5.027A2.479 2.479 0 005.027 7.5 2.479 2.479 0 007.5 9.973 2.479 2.479 0 009.973 7.5 2.479 2.479 0 007.5 5.027zM14.918 7.5c0-1.024.01-2.039-.048-3.061-.058-1.188-.329-2.242-1.197-3.11-.87-.87-1.922-1.14-3.11-1.197C9.54.075 8.524.084 7.502.084c-1.024 0-2.04-.01-3.062.048C3.253.19 2.2.46 1.33 1.329.46 2.199.192 3.25.135 4.439.076 5.463.086 6.478.086 7.5c0 1.022-.01 2.04.048 3.062.057 1.187.328 2.241 1.197 3.11.87.87 1.922 1.139 3.11 1.196 1.024.058 2.039.048 3.06.048 1.025 0 2.04.01 3.062-.048 1.188-.057 2.242-.328 3.11-1.197.87-.87 1.14-1.922 1.197-3.11.06-1.022.048-2.037.048-3.06zM7.5 11.306A3.8 3.8 0 013.694 7.5 3.8 3.8 0 017.5 3.695 3.8 3.8 0 0111.306 7.5 3.8 3.8 0 017.5 11.306zm3.961-6.879a.888.888 0 110-1.777.888.888 0 110 1.777z" fill="#7E838C"/></svg>