<svg width="21" height="21" fill="none" xmlns="http://www.w3.org/2000/svg"><path d="M17.8 14.616c-1.299-1.085-2.618-1.742-3.901-.659l-.766.655c-.561.476-1.603 2.696-5.634-1.83-4.03-4.522-1.632-5.226-1.07-5.697l.77-.656c1.277-1.086.795-2.453-.126-3.86l-.555-.852C5.593.313 4.586-.609 3.306.475l-.692.59a6.325 6.325 0 00-2.53 4.196c-.462 2.981.994 6.395 4.33 10.141C7.747 19.15 11.01 21.032 14.1 21c2.568-.027 4.12-1.373 4.604-1.862l.694-.591c1.277-1.084.484-2.187-.816-3.274l-.782-.657z" fill="#2B2E34"/></svg>