<svg width="25" height="25" fill="none" xmlns="http://www.w3.org/2000/svg"><path d="M22.478 7.14c.146-.484 0-.839-.69-.839h-2.284c-.581 0-.847.307-.993.645 0 0-1.161 2.832-2.807 4.669-.531.534-.774.703-1.063.703-.145 0-.356-.17-.356-.653V7.14c0-.582-.167-.84-.652-.84h-3.59c-.362 0-.58.269-.58.525 0 .55.822.677.907 2.227v3.363c0 .736-.132.87-.424.87-.774 0-2.657-2.842-3.775-6.096-.218-.633-.438-.888-1.021-.888H2.867c-.653 0-.784.307-.784.645 0 .606.774 3.606 3.606 7.574 1.887 2.71 4.544 4.178 6.965 4.178 1.451 0 1.63-.326 1.63-.889v-2.047c0-.653.139-.784.598-.784.338 0 .919.171 2.274 1.476 1.548 1.548 1.804 2.243 2.674 2.243h2.284c.652 0 .978-.326.79-.97-.205-.64-.945-1.573-1.926-2.676-.533-.63-1.33-1.306-1.573-1.645-.338-.436-.24-.629 0-1.016.001 0 2.784-3.918 3.073-5.25z" fill="#7E838C"/></svg>